<?xml version="1.0" standalone="no"?><!DOCTYPE svg PUBLIC "-//W3C//DTD SVG 1.1//EN" "http://www.w3.org/Graphics/SVG/1.1/DTD/svg11.dtd"><svg class="icon" width="200px" height="200.00px" viewBox="0 0 1024 1024" version="1.1" xmlns="http://www.w3.org/2000/svg"><path fill="#ffffff" d="M998.29611573 326.93731086V863.21386109c0 29.71809655-24.31480627 54.03290161-54.03290162 54.03290161H148.62873517c-29.71809655 0-54.03290161-24.31480627-54.03290162-54.03290161s24.31480627-54.03290161 54.03290162-54.03290161H890.2303125V376.91774535H210.7665722l74.29524078 75.64606276c21.61316113 21.61316113 21.61316113 56.73454675 0 78.34770788-10.80658057 10.80658057-24.31480627 16.20987085-37.82303198 16.20986963-13.50822571 0-27.01645141-5.40329028-37.82303076-16.20986963L41.91375511 364.76034284c-10.80658057-10.80658057-16.20987085-24.31480627-16.20987084-37.82303198 0-14.85904767 5.40329028-28.36727338 16.20987084-37.82303077l167.50199513-166.15117316c21.61316113-21.61316113 55.38372479-21.61316113 76.9968847 0s20.26233795 54.03290161 0 75.64606274L210.7665722 268.85194213H944.26321411c29.71809655 0 54.03290161 28.36727338 54.03290162 58.08536873z"  /></svg>