<?xml version="1.0" standalone="no"?><!DOCTYPE svg PUBLIC "-//W3C//DTD SVG 1.1//EN" "http://www.w3.org/Graphics/SVG/1.1/DTD/svg11.dtd"><svg class="icon" width="200px" height="200.00px" viewBox="0 0 1024 1024" version="1.1" xmlns="http://www.w3.org/2000/svg"><path fill="#37ABFD" d="M759.088432 504.721297H261.396757a27.675676 27.675676 0 0 1 0-55.351351h497.664a27.675676 27.675676 0 0 1 0.027675 55.351351zM759.060757 784.439351H261.396757a27.675676 27.675676 0 1 1 0-55.351351h497.636324a27.675676 27.675676 0 1 1 0.027676 55.351351zM473.586162 294.912H261.396757a27.675676 27.675676 0 0 1 0-55.351351h212.189405a27.675676 27.675676 0 0 1 0 55.351351z"  /><path fill="#37ABFD" d="M861.682162 1023.640216H162.345514c-47.325405 0-92.076973-44.696216-92.076973-91.96627V92.409081c0-47.325405 44.751568-92.076973 92.076973-92.076973h454.517621c9.797189 0 30.194162 0 43.672216 13.478054l279.74573 279.718054c13.422703 13.50573 13.422703 33.875027 13.422703 43.644541v594.501189c0.027676 44.253405-35.175784 91.96627-92.021622 91.96627zM162.345514 44.613189c-22.777081 0-47.823568 25.018811-47.823568 47.795892v839.264865c0 22.72173 25.018811 47.712865 47.823568 47.712865h699.336648c29.50227 0 47.795892-24.76973 47.795892-47.712865V337.172757c0-7.140324-0.470486-11.651459-1.383784-13.450379L629.234162 45.139027c-0.691892-0.055351-5.230703-0.525838-12.371027-0.525838H162.345514z"  /><path fill="#37ABFD" d="M658.708757 342.680216a49.926919 49.926919 0 0 1-49.871568-49.594811l-1.162378-253.315459 44.281081-0.221405 1.162378 253.287783c0.027676 2.988973 2.573838 5.535135 5.562811 5.535135h0.027676l253.426162-1.051675 0.166054 44.281081-253.426162 1.051676-0.166054 0.027675z"  /></svg>