<?xml version="1.0" standalone="no"?><!DOCTYPE svg PUBLIC "-//W3C//DTD SVG 1.1//EN" "http://www.w3.org/Graphics/SVG/1.1/DTD/svg11.dtd"><svg class="icon" width="16px" height="16.00px" viewBox="0 0 1024 1024" version="1.1" xmlns="http://www.w3.org/2000/svg"><path fill="#37ABFD" d="M931.81979711 262.45996982c-1.53273331-69.13317664-29.17854742-133.8959921-78.23567935-182.95450484-50.36754986-50.3689307-117.29966624-78.16387564-188.50824665-78.30334055l-11.08124759-0.56752558H197.69853522c-53.59457487 0-97.19600469 43.60281068-97.19600469 97.19600469v823.11092957c0 53.59457487 43.60281068 97.19600469 97.19600469 97.19600469h636.9929184c53.59319402 0 97.19600469-43.60142982 97.19600469-97.19600469v-658.48156329h-0.0676612z m-63.33916854 633.55876728c0 29.26692125-23.8098383 53.07814039-53.07952125 53.07814039H216.98750068c-29.26968291 0-53.07952125-23.81121915-53.07952125-53.07814039V122.75616123c0-29.26830209 23.81121915-53.07952125 53.07952125-53.07952124h421.04874545V236.93650805c0 31.62125485 25.72644538 57.34631938 57.34631938 57.34631938h173.09806306v601.73590967z m-150.86790666-664.32251998c-9.40490685 0-17.05338416-7.51591661-17.05338415-16.75512254l-0.00138084-145.26307375c88.12388048 8.39689305 158.82293062 76.19341578 169.95803102 162.01819629H717.61272191z" /></svg>