<?xml version="1.0" standalone="no"?><!DOCTYPE svg PUBLIC "-//W3C//DTD SVG 1.1//EN" "http://www.w3.org/Graphics/SVG/1.1/DTD/svg11.dtd"><svg class="icon" width="200px" height="200.00px" viewBox="0 0 1024 1024" version="1.1" xmlns="http://www.w3.org/2000/svg"><path fill="#37ABFD" d="M512.00062138 77.32984764c-274.35634961 0-496.76588859 194.60803667-496.76588859 434.67015236s222.40954019 434.67015236 496.76588859 434.67015236c56.64124655 0 111.07188494-8.29598986 161.78547309-23.57278341 43.29687298-13.04258879 78.08042052-72.38624142 56.88466183-155.31758083-9.42489115-36.87617392-8.61640385-68.79462468 10.89656028-88.30758881 27.13583616-27.13583616 79.28135195-21.78691041 132.09129233 8.72196657 89.37190924 51.63136281 135.10666073-93.58572597 135.10666073-176.1941671C1008.76650996 271.93788431 786.35696978 77.32984764 512.00062138 77.32984764zM512.00062138 186.81580749c34.29423271 0 62.09573622 27.80150352 62.09573622 62.09573622s-27.80150352 62.09573622-62.09573622 62.09573623-62.09573622-27.80150352-62.09573623-62.09573623S477.70514591 186.81580749 512.00062138 186.81580749zM301.26259495 373.10301494c-34.29423271 0-62.09573622-27.80150352-62.09573622-62.09573621s27.80150352-62.09573622 62.09573622-62.09573623 62.09573622 27.80150352 62.09573624 62.09573623S335.55682887 373.10301494 301.26259495 373.10301494zM493.13345263 808.60525121c-51.44134966 0-93.14360434-41.70225467-93.14360434-93.14360434s41.70225467-93.14360434 93.14360434-93.14360434c51.44259121 0 93.14360434 41.70225467 93.14360434 93.14360434S544.57604384 808.60525121 493.13345263 808.60525121zM722.73740505 373.10301494c-34.29299117 0-62.09573622-27.80150352-62.09573624-62.09573621s27.80274506-62.09573622 62.09573624-62.09573623c34.29547547 0 62.09573622 27.80150352 62.09573622 62.09573623S757.0328793 373.10301494 722.73740505 373.10301494z"  /></svg>