<?xml version="1.0" standalone="no"?><!DOCTYPE svg PUBLIC "-//W3C//DTD SVG 1.1//EN" "http://www.w3.org/Graphics/SVG/1.1/DTD/svg11.dtd"><svg class="icon" width="200px" height="200.00px" viewBox="0 0 1024 1024" version="1.1" xmlns="http://www.w3.org/2000/svg"><path fill="#ffffff" d="M754.72592555 706.18074112a145.15010333 145.15010333 0 0 0-136.7032411 97.09036999H463.45481443c-80.29373667 0-145.63555555-65.34181888-145.63555555-145.63555556v-146.84918556A240.49284779 240.49284779 0 0 0 463.45481443 560.54518557h154.56787002A145.15010333 145.15010333 0 0 0 754.72592555 657.63555555a145.63555555 145.63555555 0 1 0 0-291.2711111 145.15010333 145.15010333 0 0 0-136.7032411 97.09036998H463.45481443c-80.29373667 0-145.63555555-65.34181888-145.63555555-145.63555555v-8.93231331A145.15010333 145.15010333 0 0 0 414.90963001 172.18370333a145.63555555 145.63555555 0 1 0-291.27111111 0 145.15010333 145.15010333 0 0 0 97.09036999 136.70324224V657.63555555c0 133.83907555 108.88684999 242.72592555 242.72592554 242.72592555h154.56787002A145.15010333 145.15010333 0 0 0 754.72592555 997.45185223a145.63555555 145.63555555 0 1 0 0-291.27111111z m0-242.72592669a48.59372999 48.59372999 0 1 1-48.54518443 48.54518557c0-26.74839666 21.74824334-48.54518557 48.54518443-48.54518557zM269.27407445 123.6385189a48.59372999 48.59372999 0 1 1-48.54518556 48.54518443c0-26.74839666 21.74824334-48.54518557 48.54518556-48.54518443z m485.4518511 776.7229622a48.59372999 48.59372999 0 0 1 0-97.09036999 48.59372999 48.59372999 0 0 1 0 97.09036999z"  /></svg>